<svg xmlns="http://www.w3.org/2000/svg" version="1.1" xmlns:xlink="http://www.w3.org/1999/xlink" xmlns:svgjs="http://svgjs.dev/svgjs" width="1000" height="1000" viewBox="0 0 1000 1000"><rect width="1000" height="1000" fill="#ffffff"></rect><g transform="matrix(0.7,0,0,0.7,149.57575757575756,282.1265587044535)"><svg viewBox="0 0 396 247" data-background-color="#ffbe79" preserveAspectRatio="xMidYMid meet" height="623" width="1000" xmlns="http://www.w3.org/2000/svg" xmlns:xlink="http://www.w3.org/1999/xlink"><g id="tight-bounds" transform="matrix(1,0,0,1,0.2400000000000091,-0.09999999999999432)"><svg viewBox="0 0 395.52 247.2" height="247.2" width="395.52"><g><svg></svg></g><g><svg viewBox="0 0 395.52 247.2" height="247.2" width="395.52"><mask id="7592f532-6b70-4928-9f48-0578e5ec5747"><rect width="395.52" height="247.2" fill="white"></rect><g transform="matrix(1,0,0,1,0,77.65697560975609)" id="clone"><svg viewBox="0 0 395.52 91.88604878048781" height="91.88604878048781" width="395.52"><g><svg viewBox="0 0 395.52 91.88604878048781" height="91.88604878048781" width="395.52"><g><svg viewBox="0 0 395.52 91.88604878048781" height="91.88604878048781" width="395.52"><g><svg viewBox="0 0 395.52 91.88604878048781" height="91.88604878048781" width="395.52"><g id="SvgjsG1050"><svg viewBox="0 0 395.52 91.88604878048781" height="91.88604878048781" width="395.52" id="SvgjsSvg1049"><g><svg viewBox="0 0 395.52 91.88604878048781" height="91.88604878048781" width="395.52"><g transform="matrix(1,0,0,1,0,0)"><svg width="395.52" viewBox="-1.7000000476837158 -35.400001525878906 164.989990234375 39.10000228881836" height="91.88604878048781" data-palette-color="#374151"><path d="M25.2-7.7L25.2-7.7Q25.2-6.4 26.53-6.4 27.85-6.4 28.75-6.9L28.75-6.9 28.5-1.25Q26.1 0.7 23.1 0.7L23.1 0.7Q17.45 0.7 16.95-3.65L16.95-3.65Q13.95 0.7 8.88 0.7 3.8 0.7 2.3-1.6L2.3-1.6Q1.3-3.05 1.3-4.9 1.3-6.75 1.6-8.3L1.6-8.3 4.4-24.05 12.9-24.05 10.55-10.75Q10.4-9.85 10.4-8.95L10.4-8.95Q10.4-6.55 13.1-6.55L13.1-6.55Q15.35-6.55 16.7-8.1L16.7-8.1 19.55-24.05 28.05-24.05 25.25-8.3Q25.2-8 25.2-7.7ZM42.55 0.7L42.55 0.7Q36.75 0.7 34.2-1.9L34.2-1.9Q32.3-3.8 32.3-7L32.3-7Q32.3-8.05 32.5-9.25L32.5-9.25 35.9-28.6 45.05-32.4 43.6-24.05 57.4-24.05 56.15-17 42.35-17 41.35-11.35Q41.15-10.4 41.15-9.65L41.15-9.65Q41.15-6.5 44.15-6.5L44.15-6.5Q45.75-6.5 46.82-7.85 47.9-9.2 48.3-11.45L48.3-11.45 56.6-11.45Q54.5 0.7 42.55 0.7ZM70 0.7L70 0.7Q64.2 0.7 61.65-1.9L61.65-1.9Q59.75-3.8 59.75-7L59.75-7Q59.75-8.05 59.95-9.25L59.95-9.25 63.35-28.6 72.5-32.4 71.05-24.05 84.85-24.05 83.6-17 69.8-17 68.8-11.35Q68.6-10.4 68.6-9.65L68.6-9.65Q68.6-6.5 71.6-6.5L71.6-6.5Q73.2-6.5 74.27-7.85 75.35-9.2 75.75-11.45L75.75-11.45 84.05-11.45Q81.95 0.7 70 0.7ZM110.19-7.7L110.19-7.7Q110.19-6.4 111.52-6.4 112.84-6.4 113.74-6.9L113.74-6.9 113.49-1.25Q111.09 0.7 108.09 0.7L108.09 0.7Q102.59 0.7 101.99-3.3L101.99-3.3Q99.49 0.7 94.64 0.7L94.64 0.7Q86.44 0.7 86.44-6.35L86.44-6.35Q86.44-7.55 86.69-9L86.69-9 87.74-14.85Q88.54-19.35 91.42-22.03 94.29-24.7 98.92-24.7 103.54-24.7 105.19-22.55L105.19-22.55 105.44-24.05 113.04-24.05 110.24-8.3Q110.19-8 110.19-7.7ZM96.04-13.85L95.39-10.1Q95.29-9.65 95.29-8.85 95.29-8.05 96.04-7.28 96.79-6.5 98.57-6.5 100.34-6.5 101.64-7.9L101.64-7.9 103.14-16.3Q102.59-17.55 100.54-17.55L100.54-17.55Q96.69-17.55 96.04-13.85L96.04-13.85ZM158.24-6.4L158.24-6.4Q159.39-6.4 160.29-6.9L160.29-6.9 160.04-1.25Q157.69 0.7 154.69 0.7L154.69 0.7Q147.89 0.7 147.89-5L147.89-5Q147.89-6 148.09-7.15L148.09-7.15 149.14-13.3Q149.29-14.2 149.29-15.1L149.29-15.1Q149.29-17.5 146.67-17.5 144.04-17.5 142.54-15.45L142.54-15.45 139.84 0 131.34 0 133.69-13.3Q133.84-14.2 133.84-15.1L133.84-15.1Q133.84-17.5 131.14-17.5L131.14-17.5Q128.99-17.5 127.44-15.85L127.44-15.85 124.64 0 116.14 0 120.39-24.05 128.29-24.05 127.74-21.05Q130.74-24.75 135.34-24.75L135.34-24.75Q141.84-24.75 142.74-20.45L142.74-20.45Q145.74-24.75 150.77-24.75 155.79-24.75 157.29-22.5L157.29-22.5Q158.29-20.95 158.29-19.1 158.29-17.25 158.04-15.75L158.04-15.75 156.79-8.3Q156.74-8 156.74-7.75L156.74-7.75Q156.74-6.4 158.24-6.4Z" opacity="1" transform="matrix(1,0,0,1,0,0)" fill="black" class="wordmark-text-0" id="SvgjsPath1048" stroke-width="5" stroke="black" stroke-linejoin="round"></path></svg></g></svg></g></svg></g></svg></g><g></g></svg></g></svg></g></svg></g></mask><g mask="url(#7592f532-6b70-4928-9f48-0578e5ec5747)"><g><path xmlns="http://www.w3.org/2000/svg" d="M244.944 224.77c-17.872 14.953-43.086 22.43-75.642 22.43-32.556 0-55.12-7.522-67.694-22.565v0c-8.981-10.328-13.471-24.585-13.471-42.771v0c0-8.083 0.898-16.951 2.694-26.606v0l27.279-155.258h60.622l-27.28 153.911c-0.898 5.613-1.347 11.451-1.347 17.512v0c0 15.717 9.43 23.575 28.29 23.575v0c11.226 0 20.207-2.919 26.943-8.756 6.736-5.838 11.451-16.615 14.145-32.331v0l27.279-153.911h60.621l-27.279 155.258c-5.613 31.433-17.333 54.604-35.16 69.512z" fill="#000000" fill-rule="nonzero" stroke="none" stroke-width="1" stroke-linecap="butt" stroke-linejoin="miter" stroke-miterlimit="10" stroke-dasharray="" stroke-dashoffset="0" font-family="none" font-weight="none" font-size="none" text-anchor="none" style="mix-blend-mode: normal" data-fill-palette-color="tertiary"></path></g></g><g transform="matrix(1,0,0,1,0,77.65697560975609)"><svg viewBox="0 0 395.52 91.88604878048781" height="91.88604878048781" width="395.52"><g><svg viewBox="0 0 395.52 91.88604878048781" height="91.88604878048781" width="395.52"><g><svg viewBox="0 0 395.52 91.88604878048781" height="91.88604878048781" width="395.52"><g><svg viewBox="0 0 395.52 91.88604878048781" height="91.88604878048781" width="395.52"><g id="textblocktransform"><svg viewBox="0 0 395.52 91.88604878048781" height="91.88604878048781" width="395.52" id="textblock"><g><svg viewBox="0 0 395.52 91.88604878048781" height="91.88604878048781" width="395.52"><g transform="matrix(1,0,0,1,0,0)"><svg width="395.52" viewBox="-1.7000000476837158 -35.400001525878906 164.989990234375 39.10000228881836" height="91.88604878048781" data-palette-color="#374151"><path d="M25.2-7.7L25.2-7.7Q25.2-6.4 26.53-6.4 27.85-6.4 28.75-6.9L28.75-6.9 28.5-1.25Q26.1 0.7 23.1 0.7L23.1 0.7Q17.45 0.7 16.95-3.65L16.95-3.65Q13.95 0.7 8.88 0.7 3.8 0.7 2.3-1.6L2.3-1.6Q1.3-3.05 1.3-4.9 1.3-6.75 1.6-8.3L1.6-8.3 4.4-24.05 12.9-24.05 10.55-10.75Q10.4-9.85 10.4-8.95L10.4-8.95Q10.4-6.55 13.1-6.55L13.1-6.55Q15.35-6.55 16.7-8.1L16.7-8.1 19.55-24.05 28.05-24.05 25.25-8.3Q25.2-8 25.2-7.7ZM42.55 0.7L42.55 0.7Q36.75 0.7 34.2-1.9L34.2-1.9Q32.3-3.8 32.3-7L32.3-7Q32.3-8.05 32.5-9.25L32.5-9.25 35.9-28.6 45.05-32.4 43.6-24.05 57.4-24.05 56.15-17 42.35-17 41.35-11.35Q41.15-10.4 41.15-9.65L41.15-9.65Q41.15-6.5 44.15-6.5L44.15-6.5Q45.75-6.5 46.82-7.85 47.9-9.2 48.3-11.45L48.3-11.45 56.6-11.45Q54.5 0.7 42.55 0.7ZM70 0.7L70 0.7Q64.2 0.7 61.65-1.9L61.65-1.9Q59.75-3.8 59.75-7L59.75-7Q59.75-8.05 59.95-9.25L59.95-9.25 63.35-28.6 72.5-32.4 71.05-24.05 84.85-24.05 83.6-17 69.8-17 68.8-11.35Q68.6-10.4 68.6-9.65L68.6-9.65Q68.6-6.5 71.6-6.5L71.6-6.5Q73.2-6.5 74.27-7.85 75.35-9.2 75.75-11.45L75.75-11.45 84.05-11.45Q81.95 0.7 70 0.7ZM110.19-7.7L110.19-7.7Q110.19-6.4 111.52-6.4 112.84-6.4 113.74-6.9L113.74-6.9 113.49-1.25Q111.09 0.7 108.09 0.7L108.09 0.7Q102.59 0.7 101.99-3.3L101.99-3.3Q99.49 0.7 94.64 0.7L94.64 0.7Q86.44 0.7 86.44-6.35L86.44-6.35Q86.44-7.55 86.69-9L86.69-9 87.74-14.85Q88.54-19.35 91.42-22.03 94.29-24.7 98.92-24.7 103.54-24.7 105.19-22.55L105.19-22.55 105.44-24.05 113.04-24.05 110.24-8.3Q110.19-8 110.19-7.7ZM96.04-13.85L95.39-10.1Q95.29-9.65 95.29-8.85 95.29-8.05 96.04-7.28 96.79-6.5 98.57-6.5 100.34-6.5 101.64-7.9L101.64-7.9 103.14-16.3Q102.59-17.55 100.54-17.55L100.54-17.55Q96.69-17.55 96.04-13.85L96.04-13.85ZM158.24-6.4L158.24-6.4Q159.39-6.4 160.29-6.9L160.29-6.9 160.04-1.25Q157.69 0.7 154.69 0.7L154.69 0.7Q147.89 0.7 147.89-5L147.89-5Q147.89-6 148.09-7.15L148.09-7.15 149.14-13.3Q149.29-14.2 149.29-15.1L149.29-15.1Q149.29-17.5 146.67-17.5 144.04-17.5 142.54-15.45L142.54-15.45 139.84 0 131.34 0 133.69-13.3Q133.84-14.2 133.84-15.1L133.84-15.1Q133.84-17.5 131.14-17.5L131.14-17.5Q128.99-17.5 127.44-15.85L127.44-15.85 124.64 0 116.14 0 120.39-24.05 128.29-24.05 127.74-21.05Q130.74-24.75 135.34-24.75L135.34-24.75Q141.84-24.75 142.74-20.45L142.74-20.45Q145.74-24.75 150.77-24.75 155.79-24.75 157.29-22.5L157.29-22.5Q158.29-20.95 158.29-19.1 158.29-17.25 158.04-15.75L158.04-15.75 156.79-8.3Q156.74-8 156.74-7.75L156.74-7.75Q156.74-6.4 158.24-6.4Z" opacity="1" transform="matrix(1,0,0,1,0,0)" fill="#000000" class="wordmark-text-0" data-fill-palette-color="primary" id="text-0"></path></svg></g></svg></g></svg></g></svg></g><g></g></svg></g></svg></g></svg></g></svg></g><defs></defs></svg><rect width="395.52" height="247.2" fill="none" stroke="none" visibility="hidden"></rect></g></svg></g></svg>