<?xml version="1.0" standalone="no"?>
<!DOCTYPE svg PUBLIC "-//W3C//DTD SVG 20010904//EN"
 "http://www.w3.org/TR/2001/REC-SVG-20010904/DTD/svg10.dtd">
<svg version="1.0" xmlns="http://www.w3.org/2000/svg"
 width="2000.000000pt" height="1500.000000pt" viewBox="0 0 2000.000000 1500.000000"
 preserveAspectRatio="xMidYMid meet">

<g transform="translate(0.000000,1500.000000) scale(0.100000,-0.100000)"
fill="#000000" stroke="none">
<path d="M9795 12479 c-192 -9 -356 -18 -362 -18 -10 -1 -13 -31 -13 -115 0
-63 3 -117 8 -119 4 -3 56 0 115 5 59 6 109 9 112 7 8 -8 35 -486 35 -617 l0
-138 88 3 c48 2 115 6 149 9 l62 5 -5 32 c-11 90 -24 296 -30 500 l-7 227 111
0 111 0 3 108 c3 97 -3 135 -21 131 -3 -1 -163 -10 -356 -20z"/>
<path d="M12043 11532 c-204 -191 -371 -351 -372 -357 -1 -10 223 -145 240
-145 4 0 29 27 55 60 26 33 51 60 56 60 27 0 238 -125 238 -141 0 -5 -11 -38
-25 -75 -14 -36 -25 -70 -25 -74 0 -13 252 -152 260 -144 4 5 64 227 134 493
98 377 124 486 114 493 -7 4 -65 38 -128 74 -63 37 -129 75 -146 85 l-31 19
-370 -348z m391 19 c4 -6 -89 -306 -99 -319 -3 -4 -145 79 -145 85 0 8 223
243 231 243 4 0 10 -4 13 -9z"/>
<path d="M7093 11562 c-161 -114 -293 -211 -293 -215 0 -15 105 -186 117 -191
7 -3 53 27 103 65 51 39 93 69 94 67 192 -261 289 -399 342 -485 37 -59 73
-114 79 -121 10 -11 34 2 133 72 l121 86 -97 128 c-77 100 -298 416 -336 479
-4 8 23 31 81 69 48 31 90 58 92 60 2 2 -22 46 -53 99 -37 62 -63 95 -74 94
-9 0 -149 -93 -309 -207z"/>
<path d="M13989 9702 l-466 -157 49 -110 c27 -60 51 -111 53 -113 2 -2 64 19
137 48 115 45 377 140 385 140 2 0 3 -6 3 -14 0 -7 -81 -82 -180 -165 l-180
-151 26 -58 c14 -31 35 -79 46 -105 l21 -48 51 6 c63 7 401 35 422 35 7 0 14
-6 14 -14 0 -8 -99 -63 -240 -132 -132 -66 -240 -124 -240 -130 0 -20 99 -229
108 -227 8 2 851 461 860 468 4 4 -127 298 -137 308 -5 5 -57 -1 -117 -12
-170 -32 -395 -63 -402 -57 -9 10 29 43 199 172 86 66 167 128 182 139 l26 20
-71 158 c-39 86 -74 157 -77 156 -3 0 -216 -71 -472 -157z"/>
<path d="M5413 9603 c-4 -10 -28 -74 -54 -143 l-46 -125 241 -83 c357 -122
385 -132 416 -159 38 -32 45 -71 25 -133 -21 -62 -63 -100 -112 -100 -21 0
-157 48 -345 121 -170 67 -310 120 -312 118 -7 -10 -96 -262 -96 -272 0 -7 91
-43 203 -81 111 -38 258 -91 327 -119 205 -82 313 -77 418 17 113 102 195 337
171 490 -20 126 -93 203 -247 262 -53 21 -204 79 -335 131 -131 51 -240 93
-243 93 -2 0 -8 -8 -11 -17z"/>
<path d="M9844 9239 c-405 -36 -774 -208 -1068 -497 -761 -747 -678 -1991 175
-2636 624 -473 1496 -468 2114 12 290 224 511 546 610 887 92 316 92 673 0
990 -99 342 -319 662 -610 887 -266 207 -577 327 -920 357 -133 12 -169 12
-301 0z"/>
<path d="M5469 7740 c-112 -19 -217 -98 -273 -205 -29 -56 -31 -67 -31 -165 0
-95 3 -111 28 -162 38 -77 107 -144 187 -182 57 -27 75 -31 150 -30 155 1 275
75 342 212 30 61 33 74 33 162 0 82 -4 103 -27 152 -54 115 -162 197 -288 217
-36 6 -67 10 -70 10 -3 -1 -26 -5 -51 -9z"/>
<path d="M14438 7740 c-203 -34 -344 -233 -308 -432 22 -123 101 -228 207
-278 221 -104 471 17 530 255 27 110 -1 229 -78 326 -75 95 -224 150 -351 129z"/>
<path d="M6085 6269 c-110 -43 -258 -100 -330 -125 -151 -53 -202 -80 -244
-131 -111 -135 -67 -426 91 -598 73 -81 133 -109 228 -108 69 0 100 9 409 117
184 64 337 118 339 121 5 5 -86 264 -98 278 -4 4 -144 -47 -312 -113 -340
-134 -367 -140 -415 -91 -52 51 -67 140 -32 185 30 38 50 47 371 157 160 54
294 101 296 103 3 4 -98 287 -102 285 0 0 -91 -36 -201 -80z"/>
<path d="M13721 6251 c-13 -23 -131 -291 -131 -296 0 -2 30 -28 68 -57 146
-115 332 -271 332 -279 0 -5 -10 -9 -22 -9 -23 0 -240 39 -391 71 -54 12 -100
19 -102 17 -6 -5 -143 -313 -141 -315 1 -1 195 -112 431 -247 l430 -245 22 47
c11 26 35 77 52 115 l30 67 -142 71 c-127 64 -258 135 -326 176 -51 32 -2 33
210 3 118 -16 223 -30 234 -30 16 0 30 21 65 101 l44 101 -70 67 c-38 36 -117
112 -176 167 -58 55 -103 105 -100 111 7 10 208 -61 406 -145 55 -23 102 -42
106 -42 9 0 114 229 108 235 -2 3 -212 78 -466 168 -404 143 -464 162 -471
148z"/>
<path d="M7440 4320 c-36 -43 -66 -86 -68 -95 -2 -10 29 -36 92 -76 58 -37 93
-66 89 -73 -35 -61 -276 -406 -346 -494 -49 -62 -88 -114 -86 -116 22 -17 237
-166 241 -166 3 0 43 57 88 128 110 170 339 482 353 482 7 -1 48 -29 91 -64
l80 -63 68 81 c42 50 67 89 66 101 -2 13 -102 89 -297 227 -162 114 -297 208
-300 208 -4 0 -35 -36 -71 -80z"/>
<path d="M11948 4026 c-87 -50 -156 -95 -155 -101 2 -5 55 -230 117 -500 63
-269 115 -492 116 -493 3 -4 254 139 254 144 0 1 -13 37 -29 79 l-30 76 67 43
c61 40 165 96 176 96 3 0 29 -28 58 -63 l54 -63 132 75 131 76 -252 253 c-139
139 -304 302 -367 361 l-115 107 -157 -90z m255 -356 c59 -66 105 -125 102
-130 -11 -18 -137 -82 -144 -74 -5 5 -25 72 -46 149 -21 77 -40 148 -43 158
-11 42 31 9 131 -103z"/>
<path d="M9480 3512 c-1 -4 -7 -54 -14 -112 -8 -58 -12 -108 -9 -112 2 -5 56
-8 120 -8 l116 0 -6 -247 c-6 -219 -15 -350 -32 -475 l-5 -36 63 -6 c34 -3
101 -7 148 -9 l86 -3 6 190 c4 105 12 276 19 380 l12 188 85 -6 c47 -4 98 -9
112 -12 l25 -5 13 112 c8 71 9 115 3 121 -5 5 -142 16 -303 23 -162 8 -327 16
-366 19 -40 2 -73 1 -73 -2z"/>
</g>
</svg>
